HIERARCHY
ROOT Hips
{
	OFFSET 0.000000 121.760803 0.000000
	CHANNELS 6 Xposition Yposition Zposition Xrotation Yrotation Zrotation 
	JOINT Spine
	{
		OFFSET 0.072000 7.257294 -0.789700
		CHANNELS 3 Xrotation Yrotation Zrotation
		JOINT Spine1
		{
			OFFSET 0.000000 12.508769 -0.658067
			CHANNELS 3 Xrotation Yrotation Zrotation
			JOINT Spine1_split
			{
				OFFSET 0.000000 12.508769 -0.658067
				CHANNELS 3 Xrotation Yrotation Zrotation
				JOINT Spine2
				{
					OFFSET 0.000000 12.508769 -0.658067
					CHANNELS 3 Xrotation Yrotation Zrotation
					JOINT Neck
					{
						OFFSET 0.000000 14.033295 7.520400
						CHANNELS 3 Xrotation Yrotation Zrotation
						JOINT Head
						{
							OFFSET 0.000000 8.198502 5.703100
							CHANNELS 3 Xrotation Yrotation Zrotation
							JOINT HeadTop_End
							{
								OFFSET 0.000000 17.760803 13.332701
								CHANNELS 3 Xrotation Yrotation Zrotation
								End Site
								{
									OFFSET 0.000000 0.000000 0.000000
								}
							}
						}
					}
					JOINT LeftShoulder
					{
						OFFSET 6.292450 5.785301 -0.669000
						CHANNELS 3 Xrotation Yrotation Zrotation
						JOINT LeftShoulder_split
						{
							OFFSET 6.292450 5.785301 -0.669000
							CHANNELS 3 Xrotation Yrotation Zrotation
							JOINT LeftArm
							{
								OFFSET 13.907140 -6.093903 1.965100
								CHANNELS 3 Xrotation Yrotation Zrotation
								JOINT LeftForeArm
								{
									OFFSET 34.140198 0.000000 0.000000
									CHANNELS 3 Xrotation Yrotation Zrotation
									JOINT LeftHand
									{
										OFFSET 40.960209 0.000000 0.000000
										CHANNELS 3 Xrotation Yrotation Zrotation
										JOINT LeftHandThumb1
										{
											OFFSET 10.006996 -7.170425 9.573125
											CHANNELS 3 Xrotation Yrotation Zrotation
											JOINT LeftHandThumb2
											{
												OFFSET 1.835007 -1.059448 1.059443
												CHANNELS 3 Xrotation Yrotation Zrotation
												JOINT LeftHandThumb3
												{
													OFFSET 2.112267 -1.219513 1.219518
													CHANNELS 3 Xrotation Yrotation Zrotation
													JOINT LeftHandThumb4
													{
														OFFSET 4.843811 -2.796570 2.796576
														CHANNELS 3 Xrotation Yrotation Zrotation
														End Site
														{
															OFFSET 0.000000 0.000000 0.000000
														}
													}
												}
											}
										}
										JOINT LeftHandIndex1
										{
											OFFSET 18.389847 -0.922348 4.596882
											CHANNELS 3 Xrotation Yrotation Zrotation
											JOINT LeftHandIndex2
											{
												OFFSET 4.711273 0.000000 0.000000
												CHANNELS 3 Xrotation Yrotation Zrotation
												JOINT LeftHandIndex3
												{
													OFFSET 2.886131 0.000000 0.000000
													CHANNELS 3 Xrotation Yrotation Zrotation
													JOINT LeftHandIndex4
													{
														OFFSET 6.145912 0.000000 0.000000
														CHANNELS 3 Xrotation Yrotation Zrotation
														End Site
														{
															OFFSET 0.000000 0.000000 0.000000
														}
													}
												}
											}
										}
										JOINT LeftHandMiddle1
										{
											OFFSET 18.013008 0.000000 0.000000
											CHANNELS 3 Xrotation Yrotation Zrotation
											JOINT LeftHandMiddle2
											{
												OFFSET 4.946693 0.000000 0.000000
												CHANNELS 3 Xrotation Yrotation Zrotation
												JOINT LeftHandMiddle3
												{
													OFFSET 3.342232 0.000000 0.000000
													CHANNELS 3 Xrotation Yrotation Zrotation
													JOINT LeftHandMiddle4
													{
														OFFSET 4.461754 0.000000 0.000000
														CHANNELS 3 Xrotation Yrotation Zrotation
														End Site
														{
															OFFSET 0.000000 0.000000 0.000000
														}
													}
												}
											}
										}
										JOINT LeftHandRing1
										{
											OFFSET 15.849892 -0.102921 -4.126150
											CHANNELS 3 Xrotation Yrotation Zrotation
											JOINT LeftHandRing2
											{
												OFFSET 3.527054 0.000000 0.000000
												CHANNELS 3 Xrotation Yrotation Zrotation
												JOINT LeftHandRing3
												{
													OFFSET 2.961098 0.000000 0.000000
													CHANNELS 3 Xrotation Yrotation Zrotation
													JOINT LeftHandRing4
													{
														OFFSET 4.927200 0.000000 0.000000
														CHANNELS 3 Xrotation Yrotation Zrotation
														End Site
														{
															OFFSET 0.000000 0.000000 0.000000
														}
													}
												}
											}
										}
										JOINT LeftHandPinky1
										{
											OFFSET 12.791824 -0.832031 -6.799156
											CHANNELS 3 Xrotation Yrotation Zrotation
											JOINT LeftHandPinky2
											{
												OFFSET 3.327133 0.000000 0.000000
												CHANNELS 3 Xrotation Yrotation Zrotation
												JOINT LeftHandPinky3
												{
													OFFSET 3.014900 0.000000 0.000000
													CHANNELS 3 Xrotation Yrotation Zrotation
													JOINT LeftHandPinky4
													{
														OFFSET 5.847786 0.000000 0.000000
														CHANNELS 3 Xrotation Yrotation Zrotation
														End Site
														{
															OFFSET 0.000000 0.000000 0.000000
														}
													}
												}
											}
										}
									}
								}
							}
						}
					}
					JOINT RightShoulder
					{
						OFFSET -6.292450 5.785301 -0.669000
						CHANNELS 3 Xrotation Yrotation Zrotation
						JOINT RightShoulder_split
						{
							OFFSET -6.292450 5.785301 -0.669000
							CHANNELS 3 Xrotation Yrotation Zrotation
							JOINT RightArm
							{
								OFFSET -13.907140 -6.093903 1.965100
								CHANNELS 3 Xrotation Yrotation Zrotation
								JOINT RightForeArm
								{
									OFFSET -34.140198 0.000000 0.000000
									CHANNELS 3 Xrotation Yrotation Zrotation
									JOINT RightHand
									{
										OFFSET -40.960209 0.000000 0.000000
										CHANNELS 3 Xrotation Yrotation Zrotation
										JOINT RightHandThumb1
										{
											OFFSET -10.007050 -7.170456 9.573117
											CHANNELS 3 Xrotation Yrotation Zrotation
											JOINT RightHandThumb2
											{
												OFFSET -1.835007 -1.059448 1.059443
												CHANNELS 3 Xrotation Yrotation Zrotation
												JOINT RightHandThumb3
												{
													OFFSET -2.112267 -1.219513 1.219518
													CHANNELS 3 Xrotation Yrotation Zrotation
													JOINT RightHandThumb4
													{
														OFFSET -4.843834 -2.796585 2.796590
														CHANNELS 3 Xrotation Yrotation Zrotation
														End Site
														{
															OFFSET 0.000000 0.000000 0.000000
														}
													}
												}
											}
										}
										JOINT RightHandIndex1
										{
											OFFSET -18.389870 -0.922424 4.596786
											CHANNELS 3 Xrotation Yrotation Zrotation
											JOINT RightHandIndex2
											{
												OFFSET -4.711273 0.000000 0.000000
												CHANNELS 3 Xrotation Yrotation Zrotation
												JOINT RightHandIndex3
												{
													OFFSET -2.886131 0.000000 0.000000
													CHANNELS 3 Xrotation Yrotation Zrotation
													JOINT RightHandIndex4
													{
														OFFSET -6.145920 0.000000 0.000000
														CHANNELS 3 Xrotation Yrotation Zrotation
														End Site
														{
															OFFSET 0.000000 0.000000 0.000000
														}
													}
												}
											}
										}
										JOINT RightHandMiddle1
										{
											OFFSET -18.013008 0.000000 0.000000
											CHANNELS 3 Xrotation Yrotation Zrotation
											JOINT RightHandMiddle2
											{
												OFFSET -4.946693 0.000000 0.000000
												CHANNELS 3 Xrotation Yrotation Zrotation
												JOINT RightHandMiddle3
												{
													OFFSET -3.342232 0.000000 0.000000
													CHANNELS 3 Xrotation Yrotation Zrotation
													JOINT RightHandMiddle4
													{
														OFFSET -4.461754 0.000000 0.000000
														CHANNELS 3 Xrotation Yrotation Zrotation
														End Site
														{
															OFFSET 0.000000 0.000000 0.000000
														}
													}
												}
											}
										}
										JOINT RightHandRing1
										{
											OFFSET -15.849876 -0.102936 -4.126237
											CHANNELS 3 Xrotation Yrotation Zrotation
											JOINT RightHandRing2
											{
												OFFSET -3.527054 0.000000 0.000000
												CHANNELS 3 Xrotation Yrotation Zrotation
												JOINT RightHandRing3
												{
													OFFSET -2.961098 0.000000 0.000000
													CHANNELS 3 Xrotation Yrotation Zrotation
													JOINT RightHandRing4
													{
														OFFSET -4.927200 0.000000 0.000000
														CHANNELS 3 Xrotation Yrotation Zrotation
														End Site
														{
															OFFSET 0.000000 0.000000 0.000000
														}
													}
												}
											}
										}
										JOINT RightHandPinky1
										{
											OFFSET -12.791786 -0.832077 -6.799222
											CHANNELS 3 Xrotation Yrotation Zrotation
											JOINT RightHandPinky2
											{
												OFFSET -3.327133 0.000000 0.000000
												CHANNELS 3 Xrotation Yrotation Zrotation
												JOINT RightHandPinky3
												{
													OFFSET -3.014900 0.000000 0.000000
													CHANNELS 3 Xrotation Yrotation Zrotation
													JOINT RightHandPinky4
													{
														OFFSET -5.847786 0.000000 0.000000
														CHANNELS 3 Xrotation Yrotation Zrotation
														End Site
														{
															OFFSET 0.000000 0.000000 0.000000
														}
													}
												}
											}
										}
									}
								}
							}
						}
					}
				}
			}
		}
	}
	JOINT LeftUpLeg
	{
		OFFSET 13.026900 -6.336304 -1.092800
		CHANNELS 3 Xrotation Yrotation Zrotation
		JOINT LeftLeg
		{
			OFFSET 0.524474 -46.096886 9.782700
			CHANNELS 3 Xrotation Yrotation Zrotation
			JOINT LeftFoot
			{
				OFFSET -0.524474 -53.427422 -12.948200
				CHANNELS 3 Xrotation Yrotation Zrotation
				JOINT LeftToeBase
				{
					OFFSET 0.192200 -14.009700 16.364100
					CHANNELS 3 Xrotation Yrotation Zrotation
					JOINT LeftToe_End
					{
						OFFSET -1.784700 -0.561700 9.474800
						CHANNELS 3 Xrotation Yrotation Zrotation
						End Site
						{
							OFFSET 0.000000 0.000000 0.000000
						}
					}
				}
			}
		}
	}
	JOINT RightUpLeg
	{
		OFFSET -12.883000 -6.336304 -1.092800
		CHANNELS 3 Xrotation Yrotation Zrotation
		JOINT RightLeg
		{
			OFFSET -0.524587 -46.096825 9.782800
			CHANNELS 3 Xrotation Yrotation Zrotation
			JOINT RightFoot
			{
				OFFSET 0.524587 -53.427383 -12.948300
				CHANNELS 3 Xrotation Yrotation Zrotation
				JOINT RightToeBase
				{
					OFFSET -0.192200 -14.009700 16.364100
					CHANNELS 3 Xrotation Yrotation Zrotation
					JOINT RightToe_End
					{
						OFFSET 1.784700 -0.561700 9.474800
						CHANNELS 3 Xrotation Yrotation Zrotation
						End Site
						{
							OFFSET 0.000000 0.000000 0.000000
						}
					}
				}
			}
		}
	}
}
MOTION
Frames: 4
Frame Time: 0.016667
3.009048 99.604332 -2.081642 20.918127 -5.213089 -28.553688 9.628403 2.825215 -15.383717 6.445038 2.740810 -10.688253 0.000000 0.000000 0.000000 6.249397 2.693595 -10.811387 -0.796411 4.356711 -3.690192 -8.154880 18.426609 -3.530662 0.000000 -0.000000 0.000000 0.763381 -2.243207 16.026723 0.000000 0.000000 0.000000 -56.139599 -44.766631 -98.210013 -0.000021 -55.603884 -0.000019 -74.109718 -27.707907 14.239175 35.234538 -17.219597 -17.236898 29.406857 28.726515 -29.411802 9.113598 14.378713 -9.922567 0.000000 -0.000001 0.000001 0.797686 3.221910 -27.804752 0.799605 3.225524 -27.838623 0.202676 1.661521 -13.908055 0.000000 0.000001 -0.000002 0.796793 3.220209 -27.788719 0.800491 3.227228 -27.854649 0.202691 1.661525 -13.908058 0.000000 0.000001 -0.000001 0.797685 3.221909 -27.804747 0.799601 3.225522 -27.838620 0.202684 1.661523 -13.908064 0.000003 0.000001 -0.000003 2.684956 6.814120 -27.459497 0.809071 -0.835573 -28.291875 0.202671 1.661527 -13.908046 0.000002 -0.000001 0.000003 -0.201843 -4.974895 1.334818 0.000000 0.000000 0.000000 -165.753282 118.380197 181.246842 -0.000145 71.160162 0.000134 -23.198493 1.097510 -16.760442 40.606636 -3.110556 26.124246 -37.849507 -44.264991 -46.874956 -12.282867 -22.415216 -17.633358 -0.000001 0.000000 -0.000002 3.635327 -6.111010 61.464504 7.728626 -6.904472 96.464462 2.305135 -5.174791 47.998748 0.000002 -0.000000 0.000001 3.635320 -6.111008 61.464497 7.728625 -6.904466 96.464456 2.305135 -5.174783 47.998758 -0.000001 -0.000000 -0.000000 3.635320 -6.111009 61.464504 7.728629 -6.904477 96.464449 2.305150 -5.174787 47.998762 0.000005 -0.000000 -0.000000 3.635326 -6.111008 61.464504 7.728617 -6.904472 96.464456 2.305140 -5.174793 47.998751 -0.000001 0.000000 -0.000000 -76.271630 -7.807947 25.567544 60.545228 -8.409199 10.041759 -10.105950 -3.247061 -2.176593 -0.000025 0.000003 0.000000 -0.000000 0.000000 0.000000 -36.601382 -32.079032 9.426891 40.779542 -9.746276 1.136935 -12.460154 -8.760238 10.432965 -0.050675 -0.000003 -0.000000 -0.000000 0.000000 -0.000000 
3.038116 99.684555 -2.113426 20.723233 -5.475081 -28.195028 9.689742 2.784492 -15.295384 6.493372 2.713983 -10.616037 0.000000 0.000000 0.000000 6.300754 2.667742 -10.739125 0.207077 4.314704 -3.404715 -7.207424 18.522102 -2.767404 0.000000 -0.000001 -0.000002 0.722184 -2.099709 15.969378 0.000000 0.000000 0.000000 -55.551469 -45.310823 -97.712597 0.000017 -55.602999 0.000011 -74.614776 -26.963266 14.427170 35.234545 -17.219597 -17.236899 29.406864 28.726515 -29.411802 9.113597 14.378720 -9.922569 0.000000 -0.000001 0.000000 0.797686 3.221911 -27.804749 0.799606 3.225523 -27.838620 0.202677 1.661521 -13.908060 0.000000 0.000001 -0.000001 0.796791 3.220209 -27.788719 0.800492 3.227229 -27.854654 0.202688 1.661525 -13.908059 0.000001 -0.000001 0.000002 0.797684 3.221909 -27.804749 0.799603 3.225522 -27.838618 0.202682 1.661522 -13.908059 0.000000 0.000002 -0.000002 2.684954 6.814121 -27.459497 0.809071 -0.835571 -28.291876 0.202666 1.661530 -13.908057 -0.000000 -0.000000 0.000004 -0.173800 -4.568116 0.662833 0.000000 0.000000 0.000000 -166.330433 118.064601 182.610053 -0.000033 70.533929 0.000060 -24.020039 1.292605 -16.773071 40.606636 -3.110557 26.124248 -37.849507 -44.264991 -46.874956 -12.282867 -22.415221 -17.633353 0.000001 -0.000003 -0.000000 3.635323 -6.111009 61.464504 7.728625 -6.904468 96.464462 2.305145 -5.174790 47.998751 0.000001 -0.000001 -0.000000 3.635319 -6.111009 61.464497 7.728625 -6.904466 96.464449 2.305138 -5.174780 47.998755 -0.000003 0.000000 0.000000 3.635319 -6.111008 61.464504 7.728630 -6.904475 96.464456 2.305147 -5.174787 47.998762 0.000004 -0.000000 0.000000 3.635326 -6.111006 61.464504 7.728618 -6.904470 96.464456 2.305145 -5.174789 47.998751 -0.000002 0.000000 -0.000000 -76.067079 -7.264803 25.768402 60.441553 -8.446198 10.043127 -10.138337 -3.190149 -2.109445 -0.000002 -0.000002 0.000000 0.000000 -0.000001 -0.000000 -36.676333 -31.725020 9.181653 40.759482 -9.729476 1.212657 -12.385626 -8.614971 10.360478 -0.049235 -0.000005 -0.000000 0.000000 0.000000 -0.000000 
3.046124 99.760277 -2.139748 20.498774 -5.792811 -27.856042 9.737900 2.745030 -15.208644 6.534465 2.691600 -10.541843 0.000000 0.000000 0.000000 6.345200 2.646783 -10.664555 1.163591 4.299132 -3.121160 -6.113504 18.694849 -2.004240 0.000001 0.000000 0.000001 0.658040 -1.924517 15.859515 0.000000 0.000000 0.000000 -54.937947 -45.760034 -97.271518 0.000010 -55.535995 0.000011 -74.975492 -26.281400 14.629541 35.234535 -17.219595 -17.236899 29.406860 28.726515 -29.411799 9.113595 14.378716 -9.922572 0.000002 0.000001 -0.000002 0.797685 3.221911 -27.804747 0.799605 3.225522 -27.838623 0.202676 1.661520 -13.908059 -0.000001 0.000001 -0.000001 0.796788 3.220208 -27.788719 0.800491 3.227230 -27.854654 0.202689 1.661522 -13.908061 -0.000002 0.000001 -0.000001 0.797683 3.221911 -27.804749 0.799602 3.225522 -27.838620 0.202683 1.661523 -13.908061 -0.000002 0.000000 0.000001 2.684953 6.814120 -27.459497 0.809071 -0.835572 -28.291871 0.202671 1.661530 -13.908054 -0.000002 0.000001 -0.000002 -0.134090 -4.148875 0.057187 0.000000 0.000000 0.000000 -166.688882 117.680034 183.667543 -0.000048 69.803748 0.000057 -24.844053 1.637655 -16.745385 40.606643 -3.110557 26.124241 -37.849507 -44.264988 -46.874956 -12.282869 -22.415217 -17.633354 -0.000002 -0.000001 -0.000000 3.635323 -6.111010 61.464504 7.728625 -6.904472 96.464456 2.305141 -5.174787 47.998745 -0.000001 0.000000 -0.000000 3.635324 -6.111010 61.464497 7.728625 -6.904464 96.464449 2.305134 -5.174784 47.998758 -0.000006 -0.000000 -0.000001 3.635319 -6.111009 61.464504 7.728628 -6.904474 96.464462 2.305152 -5.174785 47.998762 0.000005 -0.000000 0.000001 3.635326 -6.111007 61.464504 7.728619 -6.904474 96.464462 2.305143 -5.174791 47.998758 -0.000005 -0.000000 -0.000000 -75.825591 -6.778157 26.014022 60.359399 -8.492858 10.046420 -10.191223 -3.060500 -2.074489 0.000009 -0.000003 -0.000007 0.000000 0.000001 -0.000000 -36.713011 -31.344216 9.018478 40.735231 -9.723565 1.267259 -12.312978 -8.457975 10.286544 -0.048206 -0.000022 -0.000002 -0.000000 0.000000 0.000000 
3.038967 99.829178 -2.171230 20.259980 -6.163879 -27.536157 9.777683 2.700837 -15.117546 6.573785 2.667611 -10.462877 0.000000 0.000000 0.000000 6.388359 2.625514 -10.584661 2.049142 4.309125 -2.841953 -4.886953 18.949344 -1.267604 0.000001 0.000002 0.000000 0.564453 -1.708719 15.694793 0.000000 0.000000 0.000000 -54.281436 -46.142501 -96.841366 0.000022 -55.447933 -0.000007 -75.196585 -25.642180 14.844988 35.234542 -17.219597 -17.236898 29.406864 28.726515 -29.411802 9.113597 14.378718 -9.922572 -0.000004 0.000001 -0.000000 0.797686 3.221911 -27.804749 0.799601 3.225523 -27.838620 0.202680 1.661521 -13.908059 -0.000001 0.000001 -0.000000 0.796788 3.220210 -27.788720 0.800489 3.227230 -27.854650 0.202690 1.661524 -13.908060 0.000002 -0.000002 0.000004 0.797684 3.221912 -27.804752 0.799602 3.225522 -27.838620 0.202682 1.661523 -13.908064 -0.000001 0.000000 0.000001 2.684953 6.814122 -27.459497 0.809072 -0.835573 -28.291875 0.202673 1.661528 -13.908048 0.000000 -0.000000 -0.000000 -0.081811 -3.700186 -0.513616 0.000000 0.000000 0.000000 -166.971119 117.245251 184.572325 -0.000041 69.013399 0.000048 -25.647673 2.088051 -16.706894 40.606636 -3.110558 26.124248 -37.849507 -44.264991 -46.874956 -12.282866 -22.415217 -17.633354 0.000001 0.000002 0.000000 3.635326 -6.111008 61.464504 7.728627 -6.904474 96.464462 2.305142 -5.174790 47.998745 0.000001 -0.000000 -0.000000 3.635323 -6.111007 61.464490 7.728625 -6.904466 96.464449 2.305137 -5.174786 47.998762 -0.000004 -0.000000 0.000000 3.635319 -6.111009 61.464504 7.728631 -6.904476 96.464462 2.305148 -5.174790 47.998765 0.000003 0.000000 -0.000000 3.635327 -6.111005 61.464504 7.728618 -6.904473 96.464456 2.305141 -5.174792 47.998748 -0.000004 -0.000001 0.000000 -75.564056 -6.354698 26.284004 60.296268 -8.547587 10.050901 -10.254698 -2.852087 -2.067805 -0.000032 -0.000000 0.000002 -0.000000 -0.000001 -0.000000 -36.734479 -30.967422 8.929937 40.708344 -9.728886 1.279965 -12.235725 -8.275242 10.217451 -0.047445 0.000027 -0.000005 -0.000000 0.000000 -0.000000 
